#!OML:ASF I:\Actors\actors\Patient Classification 1\Patient 1\Session 1\Subject1.ASF
:FULLY-SPECIFIED
:DEGREES
646
root -0.567372 17.6555 8.4204 11.6645 -2.9107 -6.81053
lowerback 2.96422 0.754118 6.17377
upperback -11.9373 1.63294 -0.353619
thorax -14.6657 0.0247376 -4.08722
lowerneck -10.8137 -4.11675 -3.89091
upperneck 27.1975 -7.50924 8.51696
head 11.0349 -2.87524 2.79103
rclavicle -6.36111e-015 1.35174e-014
rhumerus -57.2521 -10.898 -17.9591
rradius 125.962
rwrist 8.27306
rhand 30.8174 -14.1614
rfingers 7.12502
rthumb 54.4403 -32.6973
lclavicle -6.36111e-015 1.35174e-014
lhumerus -45.4137 12.9715 5.192
lradius 120.295
lwrist -2.11596
lhand -5.15002 -25.5035
lfingers 7.12502
lthumb 20.6493 3.41807
rfemur -3.28485 25.6361 24.3448
rtibia 1.01129
rfoot -12.8106 -22.6243
rtoes 0.454513
lfemur 185.733 224.229 164.563
ltibia -4.68683
lfoot 340.122 -308.196
ltoes 6.63479
647
root -0.569692 17.6493 8.43462 11.3267 -2.98876 -6.82026
lowerback 2.72221 0.768037 6.14772
upperback -11.9807 1.62875 -0.381347
thorax -14.5633 0.0267802 -4.09675
lowerneck -10.8282 -4.14286 -3.89247
upperneck 27.561 -7.59206 8.53959
head 11.184 -2.90265 2.79514
rclavicle -7.95139e-015 7.15625e-015
rhumerus -57.0327 -10.0053 -19.7237
rradius 127.891
rwrist 8.10847
rhand 31.201 -14.3297
rfingers 7.12502
rthumb 54.7833 -32.624
lclavicle -7.95139e-015 7.15625e-015
lhumerus -45.4469 12.3472 6.53156
lradius 122.761
lwrist -1.96875
lhand -4.80447 -25.5835
lfingers 7.12502
lthumb 20.9813 3.30165
rfemur -2.84823 25.4689 24.5581
rtibia 1.06035
rfoot -12.8606 -22.4342
rtoes 0.303302
lfemur 186.331 223.93 164.159
ltibia -4.71695
lfoot 340.172 -308.432
ltoes 6.52647
648
root -0.571334 17.6431 8.4491 10.9882 -3.07008 -6.83314
lowerback 2.50619 0.783332 6.14038
upperback -12.024 1.62957 -0.4167
thorax -14.4769 0.0277516 -4.12671
lowerneck -10.8308 -4.15311 -3.88307
upperneck 27.8872 -7.65565 8.57733
head 11.3163 -2.91942 2.80521
rclavicle 2.3059e-014 -2.22639e-014
rhumerus -56.7801 -8.93838 -21.611
rradius 129.761
rwrist 7.82529
rhand 31.5126 -14.5917
rfingers 7.12502
rthumb 55.0614 -32.6859
lclavicle 2.3059e-014 -2.22639e-014
lhumerus -45.4226 11.5117 7.97704
lradius 125.157
lwrist -1.83253
lhand -4.63049 -25.6696
lfingers 7.12502
lthumb 21.1484 3.1969
rfemur -2.41526 25.3016 24.7699
rtibia 1.12135
rfoot -12.9337 -22.2355
rtoes 0.252877
lfemur 186.916 223.599 163.773
ltibia -4.7453
lfoot 340.244 -308.688
ltoes 6.38581
649
root -0.572597 17.6372 8.46372 10.6577 -3.15687 -6.84858
lowerback 2.30451 0.801879 6.14422
upperback -12.0663 1.63657 -0.456314
thorax -14.3979 0.0297573 -4.16889
lowerneck -10.8118 -4.14459 -3.87316
upperneck 28.1618 -7.69416 8.63806
head 11.4242 -2.92367 2.82676
rclavicle 9.14409e-015 -2.38542e-015
rhumerus -56.4899 -7.68205 -23.6478
rradius 131.557
rwrist 7.50765
rhand 31.7373 -14.9155
rfingers 7.12502
rthumb 55.2617 -32.8632
lclavicle 9.14409e-015 -2.38542e-015
lhumerus -45.3423 10.4336 9.55363
lradius 127.465
lwrist -1.65408
lhand -4.58018 -25.8006
lfingers 7.12502
lthumb 21.1967 3.06052
rfemur -2.00264 25.131 24.9735
rtibia 1.20089
rfoot -13.0255 -22.0214
rtoes 0.289856
lfemur 187.468 223.238 163.415
ltibia -4.76165
lfoot 340.325 -308.962
ltoes 6.2288
650
root -0.573787 17.6316 8.47809 10.3444 -3.24975 -6.8676
lowerback 2.10791 0.826751 6.1543
upperback -12.1066 1.65305 -0.497015
thorax -14.3185 0.0355741 -4.2171
lowerneck -10.7752 -4.12229 -3.88756
upperneck 28.3786 -7.71318 8.73799
head 11.508 -2.91871 2.86925
rclavicle 8.34896e-015 -1.74931e-014
rhumerus -56.1671 -6.24613 -25.849
rradius 133.26
rwrist 7.27702
rhand 31.8426 -15.2509
rfingers 7.12502
rthumb 55.3555 -33.1293
lclavicle 8.34896e-015 -1.74931e-014
lhumerus -45.1998 9.10362 11.2884
lradius 129.67
lwrist -1.39977
lhand -4.54578 -25.9979
lfingers 7.12502
lthumb 21.2298 2.85954
rfemur -1.62897 24.9514 25.1646
rtibia 1.30654
rfoot -13.1259 -21.7886
rtoes 0.35018
lfemur 187.966 222.854 163.101
ltibia -4.75808
lfoot 340.406 -309.249
ltoes 6.07242
651
root -0.575178 17.6267 8.49157 10.052 -3.34888 -6.89037
lowerback 1.91338 0.863382 6.16685
upperback -12.1414 1.68586 -0.537773
thorax -14.2318 0.049404 -4.26877
lowerneck -10.719 -4.09812 -3.95589
upperneck 28.5243 -7.72921 8.90173
head 11.5653 -2.91276 2.94456
rclavicle 8.74653e-015 1.43125e-014
rhumerus -55.8266 -4.66486 -28.2217
rradius 134.859
rwrist 7.22367
rhand 31.7695 -15.5652
rfingers 7.12502
rthumb 55.2904 -33.4917
lclavicle 8.74653e-015 1.43125e-014
lhumerus -44.973 7.54421 13.2169
lradius 131.745
lwrist -1.12353
lhand -4.42785 -26.2466
lfingers 7.12502
lthumb 21.3431 2.59805
rfemur -1.30574 24.7687 25.3409
rtibia 1.44443
rfoot -13.2318 -21.5436
rtoes 0.402829
lfemur 188.404 222.457 162.835
ltibia -4.73469
lfoot 340.481 -309.537
ltoes 5.91948
652
root -0.576801 17.6222 8.50377 9.77652 -3.45188 -6.91417
lowerback 1.72056 0.914475 6.17922
upperback -12.1672 1.73832 -0.578444
thorax -14.1326 0.0734863 -4.32246
lowerneck -10.6798 -4.09316 -4.05703
upperneck 28.6478 -7.76444 9.06905
head 11.6209 -2.91857 3.02382
rclavicle -8.94531e-015 1.19271e-014
rhumerus -55.4742 -2.97953 -30.7714
rradius 136.335
rwrist 7.39464
rhand 31.5068 -15.8409
rfingers 7.12502
rthumb 55.0563 -33.9388
lclavicle -8.94531e-015 1.19271e-014
lhumerus -44.6503 5.78842 15.3871
lradius 133.643
lwrist -0.933338
lhand -4.23049 -26.5337
lfingers 7.12502
lthumb 21.5326 2.28934
rfemur -1.0252 24.5889 25.5022
rtibia 1.60722
rfoot -13.3386 -21.296
rtoes 0.418918
lfemur 188.795 222.058 162.603
ltibia -4.69631
lfoot 340.558 -309.815
ltoes 5.75914
653
root -0.578293 17.6177 8.51448 9.51021 -3.55173 -6.93326
lowerback 1.53297 0.977955 6.19176
upperback -12.1852 1.80763 -0.621618
thorax -14.0249 0.106106 -4.38083
lowerneck -10.645 -4.1041 -4.18723
upperneck 28.7557 -7.81743 9.24548
head 11.6747 -2.93469 3.109
rclavicle 5.96354e-016 -2.14687e-014
rhumerus -55.1064 -1.2156 -33.5048
rradius 137.66
rwrist 7.80948
rhand 31.0981 -16.0576
rfingers 7.12502
rthumb 54.6914 -34.4172
lclavicle 5.96354e-016 -2.14687e-014
lhumerus -44.2419 3.83797 17.8438
lradius 135.313
lwrist -0.923794
lhand -4.10556 -26.8604
lfingers 7.12502
lthumb 21.6526 1.94886
rfemur -0.767502 24.4029 25.6463
rtibia 1.77571
rfoot -13.4374 -21.0492
rtoes 0.374959
lfemur 189.155 221.659 162.388
ltibia -4.64867
lfoot 340.649 -310.086
ltoes 5.57544
654
root -0.579481 17.613 8.52334 9.24684 -3.63457 -6.95069
lowerback 1.35903 1.0468 6.21122
upperback -12.1984 1.88565 -0.666374
thorax -13.9189 0.142197 -4.4458
lowerneck -10.6119 -4.12693 -4.32018
upperneck 28.8678 -7.88312 9.40653
head 11.7313 -2.95851 3.18749
rclavicle 1.11319e-014 -1.35174e-014
rhumerus -54.7107 0.623582 -36.4211
rradius 138.805
rwrist 8.47261
rhand 30.5785 -16.1992
rfingers 7.12502
rthumb 54.2263 -34.8831
lclavicle 1.11319e-014 -1.35174e-014
lhumerus -43.7694 1.65809 20.6052
lradius 136.704
lwrist -1.11548
lhand -4.22622 -27.2576
lfingers 7.12502
lthumb 21.5367 1.56497
rfemur -0.511877 24.2106 25.7831
rtibia 1.92744
rfoot -13.5217 -20.8177
rtoes 0.289133
lfemur 189.492 221.251 162.192
ltibia -4.59982
lfoot 340.765 -310.369
ltoes 5.35036
655
root -0.580506 17.6079 8.53009 8.9833 -3.6842 -6.97602
lowerback 1.20954 1.11077 6.2456
upperback -12.2105 1.96076 -0.706237
thorax -13.8277 0.175114 -4.51368
lowerneck -10.5856 -4.14674 -4.4428
upperneck 29.0067 -7.94387 9.54875
head 11.7986 -2.9803 3.25866
rclavicle 3.77691e-015 1.27222e-014
rhumerus -54.2635 2.55374 -39.5009
rradius 139.754
rwrist 9.37133
rhand 29.9771 -16.2941
rfingers 7.12502
rthumb 53.6863 -35.342
lclavicle 3.77691e-015 1.27222e-014
lhumerus -43.2678 -0.782311 23.6581
lradius 137.785
lwrist -1.47307
lhand -4.66556 -27.7829
lfingers 7.12502
lthumb 21.1147 1.08738
rfemur -0.243842 24.0229 25.9303
rtibia 2.04726
rfoot -13.5914 -20.6231
rtoes 0.195146
lfemur 189.804 220.838 162.036
ltibia -4.55629
lfoot 340.918 -310.678
ltoes 5.05928
656
root -0.581501 17.6026 8.53467 8.72038 -3.69326 -7.00447
lowerback 1.08813 1.16297 6.28473
upperback -12.2238 2.0233 -0.738088
thorax -13.7575 0.201267 -4.57448
lowerneck -10.547 -4.15039 -4.56182
upperneck 29.1478 -7.98264 9.69254
head 11.8624 -2.99184 3.33354
rclavicle 8.54774e-015 -2.38542e-015
rhumerus -53.7411 4.59307 -42.71
rradius 140.496
rwrist 10.4702
rhand 29.326 -16.4044
rfingers 7.12502
rthumb 53.1 -35.8332
lclavicle 8.54774e-015 -2.38542e-015
lhumerus -42.7617 -3.4736 26.9361
lradius 138.555
lwrist -1.93364
lhand -5.33229 -28.4544
lfingers 7.12502
lthumb 20.4741 0.486077
rfemur 0.0379873 23.8435 26.0835
rtibia 2.13117
rfoot -13.6483 -20.4733
rtoes 0.111523
lfemur 190.093 220.447 161.91
ltibia -4.52069
lfoot 341.099 -310.998
ltoes 4.7273
657
root -0.582539 17.5973 8.53719 8.4601 -3.66127 -7.02426
lowerback 0.990454 1.19965 6.30989
upperback -12.2356 2.06624 -0.761331
thorax -13.7035 0.219645 -4.6162
lowerneck -10.4909 -4.13832 -4.68493
upperneck 29.2759 -7.9991 9.84567
head 11.9162 -2.99349 3.41617
rclavicle 2.5842e-015 7.95139e-015
rhumerus -53.1166 6.74342 -45.9968
rradius 141.022
rwrist 11.6851
rhand 28.6574 -16.5849
rfingers 7.12502
rthumb 52.4959 -36.3913
lclavicle 2.5842e-015 7.95139e-015
lhumerus -42.2519 -6.35614 30.3337
lradius 139.044
lwrist -2.4352
lhand -5.97594 -29.2154
lfingers 7.12502
lthumb 19.8555 -0.209666
rfemur 0.329145 23.6728 26.2274
rtibia 2.18131
rfoot -13.6947 -20.3685
rtoes 0.0418417
lfemur 190.364 220.113 161.792
ltibia -4.4932
lfoot 341.283 -311.305
ltoes 4.40651
658
root -0.583487 17.5922 8.53763 8.20719 -3.59065 -7.02973
lowerback 0.913675 1.21892 6.31368
upperback -12.2446 2.0862 -0.775439
thorax -13.6627 0.229612 -4.63374
lowerneck -10.4649 -4.13535 -4.82152
upperneck 29.4264 -8.02445 9.98682
head 11.9863 -3.00069 3.4959
rclavicle -2.14687e-014 -7.95139e-015
rhumerus -52.3639 8.98764 -49.2958
rradius 141.335
rwrist 12.8905
rhand 28.0028 -16.8732
rfingers 7.12502
rthumb 51.9027 -37.0365
lclavicle -2.14687e-014 -7.95139e-015
lhumerus -41.736 -9.34663 33.7568
lradius 139.297
lwrist -2.97961
lhand -6.38735 -29.9338
lfingers 7.12502
lthumb 19.46 -0.88756
rfemur 0.617405 23.5125 26.3517
rtibia 2.2087
rfoot -13.736 -20.3049
rtoes -0.0108906
lfemur 190.614 219.855 161.674
ltibia -4.47221
lfoot 341.463 -311.582
ltoes 4.12567
659
root -0.584121 17.5875 8.5357 7.97058 -3.48831 -7.01842
lowerback 0.856617 1.22298 6.29656
upperback -12.2513 2.08594 -0.782973
thorax -13.6347 0.232207 -4.63058
lowerneck -10.4206 -4.12687 -4.98975
upperneck 29.5279 -8.04244 10.1696
head 12.036 -3.00495 3.59746
rclavicle -1.35174e-014 5.56597e-015
rhumerus -51.4732 11.2968 -52.5416
rradius 141.44
rwrist 13.9987
rhand 27.3441 -17.259
rfingers 7.12502
rthumb 51.3041 -37.7691
lclavicle -1.35174e-014 5.56597e-015
lhumerus -41.2015 -12.3659 37.1342
lradius 139.346
lwrist -3.63856
lhand -6.53961 -30.4594
lfingers 7.12502
lthumb 19.3136 -1.39846
rfemur 0.881171 23.3636 26.4462
rtibia 2.22878
rfoot -13.7733 -20.2761
rtoes -0.0581766
lfemur 190.831 219.676 161.554
ltibia -4.4572
lfoot 341.631 -311.819
ltoes 3.91523
